<svg xmlns="http://www.w3.org/2000/svg" viewBox="0 0 1133.74 333.62"><defs><style>.cls-1{fill:#3c3c3b;}.cls-2{fill:#de047b;}</style></defs><title>IMIO_LOGO</title><g id="Calque_2" data-name="Calque 2"><g id="Calque_1-2" data-name="Calque 1"><path class="cls-1" d="M451.63,24.9a15.84,15.84,0,1,0-18.35,12.85A15.83,15.83,0,0,0,451.63,24.9"/><path class="cls-1" d="M885.86,24.9a15.85,15.85,0,1,0-18.35,12.85A15.83,15.83,0,0,0,885.86,24.9"/><path class="cls-1" d="M451,110.37V288.59q0,14.93-14.81,14.93t-14.8-14.93V110.37q0-14.72,14.8-14.71T451,110.37"/><path class="cls-2" d="M817.25,289.23q0,14.28-15.38,14.29-11.68,0-14.15-11.61l-49.34-222L668.6,232.66q-4.89,11.64-14.7,11.64t-14.7-11.64L569.29,69.53,519.88,291.86q-2.43,11.65-14.05,11.66-15.27,0-15.28-14.29a11.51,11.51,0,0,1,.62-3.68L550,20.92Q553,6.63,565.12,6.63q9.61,0,14.53,11.4l74.26,173.26L728.16,18q4.9-11.4,14.53-11.4,12.07,0,15.35,14.29l58.8,264.63a16.41,16.41,0,0,1,.41,3.68"/><path class="cls-1" d="M886.27,110.37V288.59q0,14.93-14.81,14.93t-14.8-14.93V110.37q0-14.72,14.8-14.71t14.81,14.71"/><path class="cls-1" d="M1133.74,199.48q0,43.13-30.52,73.58t-73.41,30.46q-42.88,0-73.41-30.46t-30.53-73.58q0-42.91,30.53-73.37t73.41-30.45q42.87,0,73.41,30.45t30.52,73.37m-29.61,0q0-30.47-21.81-52.34t-52.51-21.88q-30.72,0-52.52,21.88t-21.81,52.34q0,30.68,21.81,52.55t52.52,21.88q30.7,0,52.51-21.88t21.81-52.55"/><path class="cls-2" d="M198.1,182.13a14.51,14.51,0,1,0-14.51-14.5,14.5,14.5,0,0,0,14.51,14.5"/><path class="cls-2" d="M248.21,179.5a11.87,11.87,0,1,0-11.87-11.87,11.87,11.87,0,0,0,11.87,11.87"/><path class="cls-2" d="M295,175.35a7.73,7.73,0,1,0-7.73-7.72,7.73,7.73,0,0,0,7.73,7.72"/><path class="cls-1" d="M219.32,137a14.5,14.5,0,1,0-20.44-1.79A14.5,14.5,0,0,0,219.32,137"/><path class="cls-1" d="M256,102.74a11.86,11.86,0,1,0-16.72-1.46A11.85,11.85,0,0,0,256,102.74"/><path class="cls-1" d="M289.2,69.48a7.73,7.73,0,1,0-10.88-1,7.71,7.71,0,0,0,10.88,1"/><path class="cls-1" d="M186.34,105.7a14.51,14.51,0,1,0-16.81,11.76,14.51,14.51,0,0,0,16.81-11.76"/><path class="cls-1" d="M192.44,55.89a11.87,11.87,0,1,0-13.75,9.63,11.87,11.87,0,0,0,13.75-9.63"/><path class="cls-1" d="M196.49,9.07a7.73,7.73,0,1,0-9,6.27,7.72,7.72,0,0,0,9-6.27"/><path class="cls-1" d="M141,102.93a14.5,14.5,0,1,0-5.31,19.82A14.51,14.51,0,0,0,141,102.93"/><path class="cls-1" d="M113.63,60.85a11.87,11.87,0,1,0-4.34,16.22,11.87,11.87,0,0,0,4.34-16.22"/><path class="cls-1" d="M86.64,22.39a7.72,7.72,0,1,0-2.83,10.55,7.71,7.71,0,0,0,2.83-10.55"/><path class="cls-1" d="M104.44,130a14.5,14.5,0,1,0,8.67,18.59A14.5,14.5,0,0,0,104.44,130"/><path class="cls-1" d="M56.45,115.32a11.86,11.86,0,1,0,7.1,15.21,11.86,11.86,0,0,0-7.1-15.21"/><path class="cls-1" d="M11.05,103.2a7.73,7.73,0,1,0,4.62,9.9,7.73,7.73,0,0,0-4.62-9.9"/><path class="cls-1" d="M93.84,174.17a14.51,14.51,0,1,0,18.59,8.67,14.53,14.53,0,0,0-18.59-8.67"/><path class="cls-1" d="M47.66,193.79a11.87,11.87,0,1,0,15.21,7.09,11.86,11.86,0,0,0-15.21-7.09"/><path class="cls-1" d="M5.09,213.69a7.73,7.73,0,1,0,9.9,4.62,7.73,7.73,0,0,0-9.9-4.62"/><path class="cls-1" d="M114.13,214.85A14.51,14.51,0,1,0,134,209.54a14.51,14.51,0,0,0-19.82,5.31"/><path class="cls-1" d="M91.36,259.56a11.87,11.87,0,1,0,16.22-4.35,11.87,11.87,0,0,0-16.22,4.35"/><path class="cls-1" d="M71.54,302.17a7.73,7.73,0,1,0,10.56-2.83,7.74,7.74,0,0,0-10.56,2.83"/><path class="cls-1" d="M155.82,233a14.51,14.51,0,1,0,11.77-16.81A14.49,14.49,0,0,0,155.82,233"/><path class="cls-1" d="M167.12,281.85a11.87,11.87,0,1,0,9.63-13.75,11.85,11.85,0,0,0-9.63,13.75"/><path class="cls-1" d="M179.32,327.23a7.73,7.73,0,1,0,6.27-9,7.74,7.74,0,0,0-6.27,9"/><path class="cls-1" d="M199.4,220a14.51,14.51,0,1,0-1.79-20.44A14.5,14.5,0,0,0,199.4,220"/><path class="cls-1" d="M239.48,250.23A11.87,11.87,0,1,0,238,233.5a11.87,11.87,0,0,0,1.47,16.73"/><path class="cls-1" d="M278,277.15a7.73,7.73,0,1,0-.95-10.89,7.72,7.72,0,0,0,.95,10.89"/><path class="cls-2" d="M177.67,167.63a20.42,20.42,0,0,1,12.52-18.84,36.26,36.26,0,1,0,0,37.68,20.43,20.43,0,0,1-12.52-18.84"/></g></g></svg>